<?xml version="1.0" encoding="UTF-8"?>
<svg xmlns="http://www.w3.org/2000/svg" xmlns:xlink="http://www.w3.org/1999/xlink" fill-opacity="1" color-rendering="auto" color-interpolation="auto" stroke="black" text-rendering="auto" stroke-linecap="square" width="963" stroke-miterlimit="10" stroke-opacity="1" shape-rendering="auto" fill="black" stroke-dasharray="none" font-weight="normal" stroke-width="1" height="699" font-family="'Dialog'" font-style="normal" stroke-linejoin="miter" font-size="12" stroke-dashoffset="0" image-rendering="auto">
  <!--Generated by ySVG-->
  <defs id="genericDefs"/>
  <g>
    <defs id="defs1">
      <clipPath clipPathUnits="userSpaceOnUse" id="clipPath1">
        <path d="M0 0 L963 0 L963 699 L0 699 L0 0 Z"/>
      </clipPath>
      <clipPath clipPathUnits="userSpaceOnUse" id="clipPath2">
        <path d="M-72 -103 L891 -103 L891 596 L-72 596 L-72 -103 Z"/>
      </clipPath>
    </defs>
    <g fill="white" transform="translate(72,103)" stroke="white">
      <rect x="-72" width="963" height="699" y="-103" clip-path="url(#clipPath2)" stroke="none"/>
    </g>
    <g fill="rgb(255,204,0)" transform="matrix(1,0,0,1,72,103)" stroke="rgb(255,204,0)">
      <rect x="247" width="153" height="30" y="-88" clip-path="url(#clipPath2)" stroke="none"/>
    </g>
    <g stroke-miterlimit="1.45" font-family="sans-serif" transform="matrix(1,0,0,1,72,103)" stroke-linecap="butt">
      <text x="279.8125" xml:space="preserve" y="-68.2861" clip-path="url(#clipPath2)" stroke="none">User Application</text>
      <rect fill="none" x="247" width="153" height="30" y="-88" clip-path="url(#clipPath2)"/>
    </g>
    <g fill="rgb(255,204,0)" transform="matrix(1,0,0,1,72,103)" stroke="rgb(255,204,0)">
      <rect x="228" width="111" height="30" y="153" clip-path="url(#clipPath2)" stroke="none"/>
    </g>
    <g stroke-miterlimit="1.45" font-family="sans-serif" transform="matrix(1,0,0,1,72,103)" stroke-linecap="butt">
      <text x="244.1455" xml:space="preserve" y="172.7139" clip-path="url(#clipPath2)" stroke="none">print_message</text>
      <rect fill="none" x="228" width="111" height="30" y="153" clip-path="url(#clipPath2)"/>
    </g>
    <g fill="rgb(255,204,0)" transform="matrix(1,0,0,1,72,103)" stroke="rgb(255,204,0)">
      <rect x="474" width="135" height="30" y="-88" clip-path="url(#clipPath2)" stroke="none"/>
    </g>
    <g stroke-miterlimit="1.45" font-family="sans-serif" transform="matrix(1,0,0,1,72,103)" stroke-linecap="butt">
      <text x="497.8125" xml:space="preserve" y="-68.2861" clip-path="url(#clipPath2)" stroke="none">User Application</text>
      <rect fill="none" x="474" width="135" height="30" y="-88" clip-path="url(#clipPath2)"/>
    </g>
    <g fill="rgb(255,204,0)" transform="matrix(1,0,0,1,72,103)" stroke="rgb(255,204,0)">
      <rect x="409.5" width="162" height="30" y="150" clip-path="url(#clipPath2)" stroke="none"/>
    </g>
    <g stroke-miterlimit="1.45" font-family="sans-serif" transform="matrix(1,0,0,1,72,103)" stroke-linecap="butt">
      <text x="419.1182" xml:space="preserve" y="169.7139" clip-path="url(#clipPath2)" stroke="none">top level exception handler</text>
      <rect fill="none" x="409.5" width="162" height="30" y="150" clip-path="url(#clipPath2)"/>
    </g>
    <g fill="rgb(255,204,0)" transform="matrix(1,0,0,1,72,103)" stroke="rgb(255,204,0)">
      <rect x="216" width="135" height="30" y="238" clip-path="url(#clipPath2)" stroke="none"/>
    </g>
    <g stroke-miterlimit="1.45" font-family="sans-serif" transform="matrix(1,0,0,1,72,103)" stroke-linecap="butt">
      <text x="234.1377" xml:space="preserve" y="257.7139" clip-path="url(#clipPath2)" stroke="none">prolog:message//1</text>
      <rect fill="none" x="216" width="135" height="30" y="238" clip-path="url(#clipPath2)"/>
    </g>
    <g fill="rgb(255,204,0)" transform="matrix(1,0,0,1,72,103)" stroke="rgb(255,204,0)">
      <rect x="151.5" width="264" height="30" y="318" clip-path="url(#clipPath2)" stroke="none"/>
    </g>
    <g stroke-miterlimit="1.45" font-family="sans-serif" transform="matrix(1,0,0,1,72,103)" stroke-linecap="butt">
      <text x="166.1104" xml:space="preserve" y="337.7139" clip-path="url(#clipPath2)" stroke="none">thread_message_hook(Term, Kind, Tokens)</text>
      <rect fill="none" x="151.5" width="264" height="30" y="318" clip-path="url(#clipPath2)"/>
    </g>
    <g fill="rgb(255,204,0)" transform="matrix(1,0,0,1,72,103)" stroke="rgb(255,204,0)">
      <rect x="160" width="247" height="30" y="398" clip-path="url(#clipPath2)" stroke="none"/>
    </g>
    <g stroke-miterlimit="1.45" font-family="sans-serif" transform="matrix(1,0,0,1,72,103)" stroke-linecap="butt">
      <text x="186.46" xml:space="preserve" y="417.7139" clip-path="url(#clipPath2)" stroke="none">message_hook(Term, Kind, Tokens)</text>
      <rect fill="none" x="160" width="247" height="30" y="398" clip-path="url(#clipPath2)"/>
    </g>
    <g fill="rgb(255,204,0)" transform="matrix(1,0,0,1,72,103)" stroke="rgb(255,204,0)">
      <rect x="191" width="185" height="30" y="478" clip-path="url(#clipPath2)" stroke="none"/>
    </g>
    <g stroke-miterlimit="1.45" font-family="sans-serif" transform="matrix(1,0,0,1,72,103)" stroke-linecap="butt">
      <text x="223.4648" xml:space="preserve" y="497.7139" clip-path="url(#clipPath2)" stroke="none">print_message_lines/3</text>
      <rect fill="none" x="191" width="185" height="30" y="478" clip-path="url(#clipPath2)"/>
    </g>
    <g fill="rgb(255,204,0)" transform="matrix(1,0,0,1,72,103)" stroke="rgb(255,204,0)">
      <rect x="217" width="133" height="30" y="551" clip-path="url(#clipPath2)" stroke="none"/>
    </g>
    <g stroke-miterlimit="1.45" font-family="sans-serif" transform="matrix(1,0,0,1,72,103)" stroke-linecap="butt">
      <text x="265.1631" xml:space="preserve" y="570.7139" clip-path="url(#clipPath2)" stroke="none">stream</text>
      <rect fill="none" x="217" width="133" height="30" y="551" clip-path="url(#clipPath2)"/>
    </g>
    <g fill="rgb(255,204,0)" transform="matrix(1,0,0,1,72,103)" stroke="rgb(255,204,0)">
      <rect x="-56.5" width="190" height="63" y="221.5" clip-path="url(#clipPath2)" stroke="none"/>
    </g>
    <g stroke-miterlimit="1.45" font-family="sans-serif" transform="matrix(1,0,0,1,72,103)" stroke-linecap="butt">
      <text x="-31.5459" xml:space="preserve" y="250.3633" clip-path="url(#clipPath2)" stroke="none">tokens are defined in docs</text>
      <text x="-25.2002" xml:space="preserve" y="265.0645" clip-path="url(#clipPath2)" stroke="none">for print_message_lines</text>
      <rect fill="none" x="-56.5" width="190" height="63" y="221.5" clip-path="url(#clipPath2)"/>
    </g>
    <g fill="rgb(255,204,0)" transform="matrix(1,0,0,1,72,103)" stroke="rgb(255,204,0)">
      <rect x="748" width="103" height="30" y="85" clip-path="url(#clipPath2)" stroke="none"/>
    </g>
    <g stroke-miterlimit="1.45" font-family="sans-serif" transform="matrix(1,0,0,1,72,103)" stroke-linecap="butt">
      <text x="770.8242" xml:space="preserve" y="104.7139" clip-path="url(#clipPath2)" stroke="none">User catch</text>
      <rect fill="none" x="748" width="103" height="30" y="85" clip-path="url(#clipPath2)"/>
    </g>
    <g fill="rgb(255,204,0)" transform="matrix(1,0,0,1,72,103)" stroke="rgb(255,204,0)">
      <rect x="490" width="203" height="30" y="478" clip-path="url(#clipPath2)" stroke="none"/>
    </g>
    <g stroke-miterlimit="1.45" font-family="sans-serif" transform="matrix(1,0,0,1,72,103)" stroke-linecap="butt">
      <text x="500.4541" xml:space="preserve" y="497.7139" clip-path="url(#clipPath2)" stroke="none">defaults from message_property/2</text>
      <rect fill="none" x="490" width="203" height="30" y="478" clip-path="url(#clipPath2)"/>
    </g>
    <g fill="rgb(255,204,0)" transform="matrix(1,0,0,1,72,103)" stroke="rgb(255,204,0)">
      <rect x="409.5" width="98" height="30" y="202" clip-path="url(#clipPath2)" stroke="none"/>
    </g>
    <g stroke-miterlimit="1.45" font-family="sans-serif" transform="matrix(1,0,0,1,72,103)" stroke-linecap="butt">
      <text x="436.4922" xml:space="preserve" y="221.7139" clip-path="url(#clipPath2)" stroke="none">format/2</text>
      <rect fill="none" x="409.5" width="98" height="30" y="202" clip-path="url(#clipPath2)"/>
    </g>
    <g fill="rgb(255,204,0)" transform="matrix(1,0,0,1,72,103)" stroke="rgb(255,204,0)">
      <rect x="691" width="185" height="30" y="149" clip-path="url(#clipPath2)" stroke="none"/>
    </g>
    <g stroke-miterlimit="1.45" font-family="sans-serif" transform="matrix(1,0,0,1,72,103)" stroke-linecap="butt">
      <text x="716.4482" xml:space="preserve" y="168.7139" clip-path="url(#clipPath2)" stroke="none">prolog_exception_hook/4</text>
      <rect fill="none" x="691" width="185" height="30" y="149" clip-path="url(#clipPath2)"/>
    </g>
    <g fill="rgb(255,204,0)" transform="matrix(1,0,0,1,72,103)" stroke="rgb(255,204,0)">
      <rect x="441" width="185" height="30" y="73" clip-path="url(#clipPath2)" stroke="none"/>
    </g>
    <g stroke-miterlimit="1.45" font-family="sans-serif" transform="matrix(1,0,0,1,72,103)" stroke-linecap="butt">
      <text x="466.4482" xml:space="preserve" y="92.7139" clip-path="url(#clipPath2)" stroke="none">prolog_exception_hook/4</text>
      <rect fill="none" x="441" width="185" height="30" y="73" clip-path="url(#clipPath2)"/>
    </g>
    <g fill="rgb(255,204,0)" transform="matrix(1,0,0,1,72,103)" stroke="rgb(255,204,0)">
      <rect x="455.5" width="153" height="30" y="374" clip-path="url(#clipPath2)" stroke="none"/>
    </g>
    <g stroke-miterlimit="1.45" font-family="sans-serif" transform="matrix(1,0,0,1,72,103)" stroke-linecap="butt">
      <text x="477.3057" xml:space="preserve" y="393.7139" clip-path="url(#clipPath2)" stroke="none">User Defined Output</text>
      <rect fill="none" x="455.5" width="153" height="30" y="374" clip-path="url(#clipPath2)"/>
    </g>
    <g fill="rgb(255,204,0)" transform="matrix(1,0,0,1,72,103)" stroke="rgb(255,204,0)">
      <rect x="445.5" width="173" height="30" y="325" clip-path="url(#clipPath2)" stroke="none"/>
    </g>
    <g stroke-miterlimit="1.45" font-family="sans-serif" transform="matrix(1,0,0,1,72,103)" stroke-linecap="butt">
      <text x="476.3008" xml:space="preserve" y="344.7139" clip-path="url(#clipPath2)" stroke="none">message_to_string/2</text>
      <rect fill="none" x="445.5" width="173" height="30" y="325" clip-path="url(#clipPath2)"/>
    </g>
    <g fill="rgb(255,204,0)" transform="matrix(1,0,0,1,72,103)" stroke="rgb(255,204,0)">
      <rect x="74" width="121" height="30" y="-88" clip-path="url(#clipPath2)" stroke="none"/>
    </g>
    <g stroke-miterlimit="1.45" font-family="sans-serif" transform="matrix(1,0,0,1,72,103)" stroke-linecap="butt">
      <text x="112.8115" xml:space="preserve" y="-68.2861" clip-path="url(#clipPath2)" stroke="none">debug/3</text>
      <rect fill="none" x="74" width="121" height="30" y="-88" clip-path="url(#clipPath2)"/>
    </g>
    <g fill="rgb(255,204,0)" transform="matrix(1,0,0,1,72,103)" stroke="rgb(255,204,0)">
      <rect x="-15.5" width="173" height="30" y="32" clip-path="url(#clipPath2)" stroke="none"/>
    </g>
    <g stroke-miterlimit="1.45" font-family="sans-serif" transform="matrix(1,0,0,1,72,103)" stroke-linecap="butt">
      <text x="-0.3906" xml:space="preserve" y="51.7139" clip-path="url(#clipPath2)" stroke="none">prolog:debug_print_hook/3</text>
      <rect fill="none" x="-15.5" width="173" height="30" y="32" clip-path="url(#clipPath2)"/>
      <path fill="none" d="M321.0104 -58 L287.2995 145.108" clip-path="url(#clipPath2)" stroke="lime"/>
      <path fill="lime" d="M285.9896 153 L292.887 141.9806 L287.4632 144.1215 L283.0219 140.3433 Z" clip-path="url(#clipPath2)" stroke="none"/>
      <text x="264.0867" xml:space="preserve" y="52.2139" clip-path="url(#clipPath2)" stroke="none">call</text>
      <path fill="none" d="M409.5 166.1739 L346.9991 167.0797" clip-path="url(#clipPath2)" stroke="lime"/>
      <path fill="lime" d="M339 167.1957 L351.0712 172.0212 L347.9991 167.0652 L350.9263 162.0223 Z" clip-path="url(#clipPath2)" stroke="none"/>
      <path fill="none" d="M283.5 183 L283.5 230" clip-path="url(#clipPath2)" stroke="red"/>
      <path fill="red" d="M283.5 238 L288.5 226 L283.5 229 L278.5 226 Z" clip-path="url(#clipPath2)" stroke="none"/>
      <text x="233.8242" xml:space="preserve" y="215.2139" clip-path="url(#clipPath2)" stroke="none">Tokens</text>
      <path fill="none" d="M283.5 268 L283.5 310" clip-path="url(#clipPath2)" stroke="red"/>
      <path fill="red" d="M283.5 318 L288.5 306 L283.5 309 L278.5 306 Z" clip-path="url(#clipPath2)" stroke="none"/>
      <text x="233.8242" xml:space="preserve" y="297.7139" clip-path="url(#clipPath2)" stroke="none">Tokens</text>
      <path fill="none" d="M283.5 348 L283.5 390" clip-path="url(#clipPath2)" stroke="red"/>
      <path fill="red" d="M283.5 398 L288.5 386 L283.5 389 L278.5 386 Z" clip-path="url(#clipPath2)" stroke="none"/>
      <text x="242.8301" xml:space="preserve" y="377.7139" clip-path="url(#clipPath2)" stroke="none">fails</text>
      <path fill="none" d="M283.5 428 L283.5 470" clip-path="url(#clipPath2)" stroke="red"/>
      <path fill="red" d="M283.5 478 L288.5 466 L283.5 469 L278.5 466 Z" clip-path="url(#clipPath2)" stroke="none"/>
      <text x="242.8301" xml:space="preserve" y="457.7139" clip-path="url(#clipPath2)" stroke="none">fails</text>
      <path fill="none" d="M295.3506 427.9609 L298.5 433 L302.25 443 L303.5 453 L302.25 463 L299.266 470.9574 L299.213 471.0422" clip-path="url(#clipPath2)" stroke="red"/>
      <path fill="red" d="M294.9728 477.826 L305.573 470.3004 L299.743 470.1942 L297.0932 465.0002 Z" clip-path="url(#clipPath2)" stroke="none"/>
      <text x="290.5283" xml:space="preserve" y="449.7764" clip-path="url(#clipPath2)" stroke="none">call</text>
      <path fill="none" d="M222.0597 347.9902 L203.4375 353 L171.9844 363 L146.25 373 L126.2344 383 L111.9375 393 L106.9336 398 L103.3594 403 L101.2148 408 L100.5 413 L101.2148 418 L103.3594 423 L106.9336 428 L111.9375 433 L126.2344 443 L146.25 453 L171.9844 463 L203.4375 473 L214.2618 475.912" clip-path="url(#clipPath2)" stroke="red"/>
      <path fill="red" d="M221.9872 477.9902 L211.6981 470.0445 L213.2962 475.6522 L209.1002 479.7012 Z" clip-path="url(#clipPath2)" stroke="none"/>
      <text x="155.4041" xml:space="preserve" y="373.6158" clip-path="url(#clipPath2)" stroke="none">call</text>
      <path fill="none" d="M283.5 508 L283.5 543" clip-path="url(#clipPath2)" stroke="navy"/>
      <path fill="navy" d="M283.5 551 L288.5 539 L283.5 542 L278.5 539 Z" clip-path="url(#clipPath2)" stroke="none"/>
      <path fill="none" stroke-dasharray="6,2" d="M133.5 253 L216 253" clip-path="url(#clipPath2)"/>
      <path fill="none" stroke-dasharray="6,2" d="M490 493 L376 493" clip-path="url(#clipPath2)"/>
      <path fill="none" stroke-dasharray="6,2" d="M409.5 203.28 L337.0714 183" clip-path="url(#clipPath2)"/>
      <path fill="none" d="M783.9787 115 L754.5553 143.4352" clip-path="url(#clipPath2)" stroke="lime"/>
      <path fill="lime" d="M748.8027 148.9946 L760.9062 144.2509 L755.2744 142.7403 L753.957 137.0601 Z" clip-path="url(#clipPath2)" stroke="none"/>
      <text x="780.0635" xml:space="preserve" y="136.7139" clip-path="url(#clipPath2)" stroke="none">rethrow</text>
      <path fill="none" d="M691 164.3157 L579.4999 164.6962" clip-path="url(#clipPath2)" stroke="lime"/>
      <path fill="lime" d="M571.5 164.7235 L583.517 169.6826 L580.4999 164.6928 L583.4828 159.6826 Z" clip-path="url(#clipPath2)" stroke="none"/>
      <path fill="none" d="M540.7546 -58 L534.6424 65.0099" clip-path="url(#clipPath2)" stroke="lime"/>
      <path fill="lime" d="M534.2454 73 L539.8347 61.2629 L534.692 64.0111 L529.847 60.7666 Z" clip-path="url(#clipPath2)" stroke="none"/>
      <text x="492.7911" xml:space="preserve" y="12.2139" clip-path="url(#clipPath2)" stroke="none">throw</text>
      <path fill="none" d="M626 93.1748 L739.9827 99.5515" clip-path="url(#clipPath2)" stroke="lime"/>
      <path fill="lime" d="M747.9702 99.9983 L736.2682 94.3359 L738.9843 99.4956 L735.7097 104.3203 Z" clip-path="url(#clipPath2)" stroke="none"/>
      <text x="672.3281" xml:space="preserve" y="113.5846" clip-path="url(#clipPath2)" stroke="none">throw</text>
      <path fill="none" d="M525.1234 103 L502.7772 143.0153" clip-path="url(#clipPath2)" stroke="lime"/>
      <path fill="lime" d="M498.8766 150 L509.0928 141.9608 L503.2647 142.1422 L500.362 137.0851 Z" clip-path="url(#clipPath2)" stroke="none"/>
      <path fill="none" d="M350.0625 348 L457.6332 372.2413" clip-path="url(#clipPath2)" stroke="navy"/>
      <path fill="navy" d="M465.4375 374 L454.8303 366.4842 L456.6577 372.0214 L452.6319 376.2396 Z" clip-path="url(#clipPath2)" stroke="none"/>
      <path fill="none" d="M407 401.0724 L447.537 397.1574" clip-path="url(#clipPath2)" stroke="navy"/>
      <path fill="navy" d="M455.5 396.3883 L443.0749 392.5651 L446.5417 397.2535 L444.0363 402.5187 Z" clip-path="url(#clipPath2)" stroke="none"/>
      <path fill="none" d="M324.6279 398 L438.0035 356.6501" clip-path="url(#clipPath2)" stroke="red"/>
      <path fill="red" d="M445.5192 353.909 L432.5324 353.3233 L437.064 356.9927 L435.9588 362.718 Z" clip-path="url(#clipPath2)" stroke="none"/>
      <path fill="none" d="M415.5 336.7183 L437.5032 337.3381" clip-path="url(#clipPath2)" stroke="red"/>
      <path fill="red" d="M445.5 337.5634 L433.6455 332.2274 L436.5036 337.3099 L433.364 342.2235 Z" clip-path="url(#clipPath2)" stroke="none"/>
      <path fill="none" stroke-dasharray="6,2" d="M604.2762 478 L605.5208 476.5388 L617.1762 460.9975 L626.4664 446.3759 L633.3914 432.6742 L637.951 419.8923 L640.1454 408.0303 L639.9746 397.088 L637.4385 387.0656 L632.5371 377.963 L625.2704 369.7803 L615.6385 362.5173 L603.6414 356.1742 L600.5276 354.9984" clip-path="url(#clipPath2)"/>
      <path fill="none" d="M532 355 L532 366" clip-path="url(#clipPath2)" stroke="navy"/>
      <path fill="navy" d="M532 374 L537 362 L532 365 L527 362 Z" clip-path="url(#clipPath2)" stroke="none"/>
      <path fill="none" d="M130.6555 -58 L109.572 24.2603" clip-path="url(#clipPath2)" stroke="lime"/>
      <path fill="lime" d="M107.5857 32.0098 L115.4085 21.6269 L109.8202 23.2916 L105.7216 19.1441 Z" clip-path="url(#clipPath2)" stroke="none"/>
      <path fill="none" d="M97.343 62 L250.205 149.0415" clip-path="url(#clipPath2)" stroke="lime"/>
      <path fill="lime" d="M257.157 153 L249.2031 142.7172 L249.336 148.5466 L244.255 151.4072 Z" clip-path="url(#clipPath2)" stroke="none"/>
      <text x="166.5801" xml:space="preserve" y="93.6489" clip-path="url(#clipPath2)" stroke="none">fails</text>
    </g>
  </g>
</svg>
